<?xml version="1.0" encoding="UTF-8" standalone="no"?>
<!DOCTYPE svg PUBLIC "-//W3C//DTD SVG 1.1//EN"
 "http://www.w3.org/Graphics/SVG/1.1/DTD/svg11.dtd">
<!-- Generated by graphviz version 2.38.0 (20140413.2041)
 -->
<!-- Title: Call graph of the module. Pages: 1 -->
<svg width="7349pt" height="214pt"
 viewBox="0.00 0.00 7349.00 214.00" xmlns="http://www.w3.org/2000/svg" xmlns:xlink="http://www.w3.org/1999/xlink">
<g id="graph0" class="graph" transform="scale(1 1) rotate(0) translate(4 210)">
<title>Call graph of the module.</title>
<polygon fill="white" stroke="none" points="-4,4 -4,-210 7345,-210 7345,4 -4,4"/>
<text text-anchor="middle" x="3670.5" y="-7.8" font-family="Times,serif" font-size="14.00">Call graph of the module.</text>
<!-- Node_function_403ecb -->
<g id="node1" class="node"><title>Node_function_403ecb</title>
<polygon fill="none" stroke="black" points="17.5,-96.5 17.5,-132.5 153.5,-132.5 153.5,-96.5 17.5,-96.5"/>
<text text-anchor="middle" x="85.5" y="-110.8" font-family="Times,serif" font-size="14.00">function_403ecb</text>
</g>
<!-- Node___report_gsfailure -->
<g id="node24" class="node"><title>Node___report_gsfailure</title>
<polygon fill="none" stroke="#7f7f7f" points="0,-23.5 0,-59.5 147,-59.5 147,-23.5 0,-23.5"/>
<text text-anchor="middle" x="73.5" y="-37.8" font-family="Times,serif" font-size="14.00" fill="#7f7f7f">__report_gsfailure</text>
</g>
<!-- Node_function_403ecb&#45;&gt;Node___report_gsfailure -->
<g id="edge1" class="edge"><title>Node_function_403ecb&#45;&gt;Node___report_gsfailure</title>
<path fill="none" stroke="black" d="M82.5951,-96.3129C81.2391,-88.2895 79.5925,-78.5475 78.0751,-69.5691"/>
<polygon fill="black" stroke="black" points="81.4958,-68.8057 76.3781,-59.5288 74.5936,-69.9723 81.4958,-68.8057"/>
</g>
<!-- Node_function_4040a4 -->
<g id="node2" class="node"><title>Node_function_4040a4</title>
<polygon fill="none" stroke="black" points="467,-96.5 467,-132.5 604,-132.5 604,-96.5 467,-96.5"/>
<text text-anchor="middle" x="535.5" y="-110.8" font-family="Times,serif" font-size="14.00">function_4040a4</text>
</g>
<!-- Node_unknown_404bdb -->
<g id="node28" class="node"><title>Node_unknown_404bdb</title>
<polygon fill="none" stroke="#7f7f7f" points="406,-23.5 406,-59.5 549,-59.5 549,-23.5 406,-23.5"/>
<text text-anchor="middle" x="477.5" y="-37.8" font-family="Times,serif" font-size="14.00" fill="#7f7f7f">unknown_404bdb</text>
</g>
<!-- Node_function_4040a4&#45;&gt;Node_unknown_404bdb -->
<g id="edge2" class="edge"><title>Node_function_4040a4&#45;&gt;Node_unknown_404bdb</title>
<path fill="none" stroke="black" d="M521.46,-96.3129C514.407,-87.679 505.728,-77.0551 497.95,-67.5341"/>
<polygon fill="black" stroke="black" points="500.448,-65.059 491.411,-59.5288 495.027,-69.4876 500.448,-65.059"/>
</g>
<!-- Node_fgetc -->
<g id="node29" class="node"><title>Node_fgetc</title>
<polygon fill="none" stroke="#7f7f7f" points="567.5,-23.5 567.5,-59.5 621.5,-59.5 621.5,-23.5 567.5,-23.5"/>
<text text-anchor="middle" x="594.5" y="-37.8" font-family="Times,serif" font-size="14.00" fill="#7f7f7f">fgetc</text>
</g>
<!-- Node_function_4040a4&#45;&gt;Node_fgetc -->
<g id="edge3" class="edge"><title>Node_function_4040a4&#45;&gt;Node_fgetc</title>
<path fill="none" stroke="black" d="M549.782,-96.3129C557.029,-87.5918 565.964,-76.8402 573.936,-67.2459"/>
<polygon fill="black" stroke="black" points="576.65,-69.4569 580.349,-59.5288 571.266,-64.983 576.65,-69.4569"/>
</g>
<!-- Node_function_4040b1 -->
<g id="node3" class="node"><title>Node_function_4040b1</title>
<polygon fill="none" stroke="black" points="467,-169.5 467,-205.5 604,-205.5 604,-169.5 467,-169.5"/>
<text text-anchor="middle" x="535.5" y="-183.8" font-family="Times,serif" font-size="14.00">function_4040b1</text>
</g>
<!-- Node_function_4040b1&#45;&gt;Node_function_4040a4 -->
<g id="edge4" class="edge"><title>Node_function_4040b1&#45;&gt;Node_function_4040a4</title>
<path fill="none" stroke="black" d="M535.5,-169.313C535.5,-161.289 535.5,-151.547 535.5,-142.569"/>
<polygon fill="black" stroke="black" points="539,-142.529 535.5,-132.529 532,-142.529 539,-142.529"/>
</g>
<!-- Node_function_40414a -->
<g id="node4" class="node"><title>Node_function_40414a</title>
<polygon fill="none" stroke="black" points="729,-169.5 729,-205.5 866,-205.5 866,-169.5 729,-169.5"/>
<text text-anchor="middle" x="797.5" y="-183.8" font-family="Times,serif" font-size="14.00">function_40414a</text>
</g>
<!-- Node__qm__Type_info_dtor_type_info__CAXPAV1__Z -->
<g id="node31" class="node"><title>Node__qm__Type_info_dtor_type_info__CAXPAV1__Z</title>
<polygon fill="none" stroke="#7f7f7f" points="622,-96.5 622,-132.5 973,-132.5 973,-96.5 622,-96.5"/>
<text text-anchor="middle" x="797.5" y="-110.8" font-family="Times,serif" font-size="14.00" fill="#7f7f7f">_qm__Type_info_dtor_type_info__CAXPAV1__Z</text>
</g>
<!-- Node_function_40414a&#45;&gt;Node__qm__Type_info_dtor_type_info__CAXPAV1__Z -->
<g id="edge5" class="edge"><title>Node_function_40414a&#45;&gt;Node__qm__Type_info_dtor_type_info__CAXPAV1__Z</title>
<path fill="none" stroke="black" d="M797.5,-169.313C797.5,-161.289 797.5,-151.547 797.5,-142.569"/>
<polygon fill="black" stroke="black" points="801,-142.529 797.5,-132.529 794,-142.529 801,-142.529"/>
</g>
<!-- Node_function_404452 -->
<g id="node5" class="node"><title>Node_function_404452</title>
<polygon fill="none" stroke="black" points="884,-169.5 884,-205.5 1021,-205.5 1021,-169.5 884,-169.5"/>
<text text-anchor="middle" x="952.5" y="-183.8" font-family="Times,serif" font-size="14.00">function_404452</text>
</g>
<!-- Node_function_404519 -->
<g id="node6" class="node"><title>Node_function_404519</title>
<polygon fill="none" stroke="black" points="1039,-96.5 1039,-132.5 1176,-132.5 1176,-96.5 1039,-96.5"/>
<text text-anchor="middle" x="1107.5" y="-110.8" font-family="Times,serif" font-size="14.00">function_404519</text>
</g>
<!-- Node__qm__Tidy_exception_std__AAEXXZ -->
<g id="node25" class="node"><title>Node__qm__Tidy_exception_std__AAEXXZ</title>
<polygon fill="none" stroke="#7f7f7f" points="969,-23.5 969,-59.5 1246,-59.5 1246,-23.5 969,-23.5"/>
<text text-anchor="middle" x="1107.5" y="-37.8" font-family="Times,serif" font-size="14.00" fill="#7f7f7f">_qm__Tidy_exception_std__AAEXXZ</text>
</g>
<!-- Node_function_404519&#45;&gt;Node__qm__Tidy_exception_std__AAEXXZ -->
<g id="edge6" class="edge"><title>Node_function_404519&#45;&gt;Node__qm__Tidy_exception_std__AAEXXZ</title>
<path fill="none" stroke="black" d="M1107.5,-96.3129C1107.5,-88.2895 1107.5,-78.5475 1107.5,-69.5691"/>
<polygon fill="black" stroke="black" points="1111,-69.5288 1107.5,-59.5288 1104,-69.5289 1111,-69.5288"/>
</g>
<!-- Node_function_404770 -->
<g id="node7" class="node"><title>Node_function_404770</title>
<polygon fill="none" stroke="black" points="1194,-169.5 1194,-205.5 1331,-205.5 1331,-169.5 1194,-169.5"/>
<text text-anchor="middle" x="1262.5" y="-183.8" font-family="Times,serif" font-size="14.00">function_404770</text>
</g>
<!-- Node_TlsAlloc -->
<g id="node39" class="node"><title>Node_TlsAlloc</title>
<polygon fill="none" stroke="#7f7f7f" points="1225.5,-96.5 1225.5,-132.5 1299.5,-132.5 1299.5,-96.5 1225.5,-96.5"/>
<text text-anchor="middle" x="1262.5" y="-110.8" font-family="Times,serif" font-size="14.00" fill="#7f7f7f">TlsAlloc</text>
</g>
<!-- Node_function_404770&#45;&gt;Node_TlsAlloc -->
<g id="edge7" class="edge"><title>Node_function_404770&#45;&gt;Node_TlsAlloc</title>
<path fill="none" stroke="black" d="M1262.5,-169.313C1262.5,-161.289 1262.5,-151.547 1262.5,-142.569"/>
<polygon fill="black" stroke="black" points="1266,-142.529 1262.5,-132.529 1259,-142.529 1266,-142.529"/>
</g>
<!-- Node_function_404be6 -->
<g id="node8" class="node"><title>Node_function_404be6</title>
<polygon fill="none" stroke="black" points="1349,-169.5 1349,-205.5 1486,-205.5 1486,-169.5 1349,-169.5"/>
<text text-anchor="middle" x="1417.5" y="-183.8" font-family="Times,serif" font-size="14.00">function_404be6</text>
</g>
<!-- Node__calloc_crt -->
<g id="node32" class="node"><title>Node__calloc_crt</title>
<polygon fill="none" stroke="#7f7f7f" points="1370,-96.5 1370,-132.5 1465,-132.5 1465,-96.5 1370,-96.5"/>
<text text-anchor="middle" x="1417.5" y="-110.8" font-family="Times,serif" font-size="14.00" fill="#7f7f7f">_calloc_crt</text>
</g>
<!-- Node_function_404be6&#45;&gt;Node__calloc_crt -->
<g id="edge8" class="edge"><title>Node_function_404be6&#45;&gt;Node__calloc_crt</title>
<path fill="none" stroke="black" d="M1417.5,-169.313C1417.5,-161.289 1417.5,-151.547 1417.5,-142.569"/>
<polygon fill="black" stroke="black" points="1421,-142.529 1417.5,-132.529 1414,-142.529 1421,-142.529"/>
</g>
<!-- Node_function_405d60 -->
<g id="node9" class="node"><title>Node_function_405d60</title>
<polygon fill="none" stroke="black" points="1504,-169.5 1504,-205.5 1641,-205.5 1641,-169.5 1504,-169.5"/>
<text text-anchor="middle" x="1572.5" y="-183.8" font-family="Times,serif" font-size="14.00">function_405d60</text>
</g>
<!-- Node__getptd_noexit -->
<g id="node26" class="node"><title>Node__getptd_noexit</title>
<polygon fill="none" stroke="#7f7f7f" points="1588,-96.5 1588,-132.5 1711,-132.5 1711,-96.5 1588,-96.5"/>
<text text-anchor="middle" x="1649.5" y="-110.8" font-family="Times,serif" font-size="14.00" fill="#7f7f7f">_getptd_noexit</text>
</g>
<!-- Node_function_405d60&#45;&gt;Node__getptd_noexit -->
<g id="edge9" class="edge"><title>Node_function_405d60&#45;&gt;Node__getptd_noexit</title>
<path fill="none" stroke="black" d="M1591.14,-169.313C1600.88,-160.33 1612.96,-149.193 1623.6,-139.386"/>
<polygon fill="black" stroke="black" points="1626.05,-141.881 1631.03,-132.529 1621.31,-136.735 1626.05,-141.881"/>
</g>
<!-- Node_function_405d73 -->
<g id="node10" class="node"><title>Node_function_405d73</title>
<polygon fill="none" stroke="black" points="1659,-169.5 1659,-205.5 1796,-205.5 1796,-169.5 1659,-169.5"/>
<text text-anchor="middle" x="1727.5" y="-183.8" font-family="Times,serif" font-size="14.00">function_405d73</text>
</g>
<!-- Node_function_405d73&#45;&gt;Node__getptd_noexit -->
<g id="edge10" class="edge"><title>Node_function_405d73&#45;&gt;Node__getptd_noexit</title>
<path fill="none" stroke="black" d="M1708.62,-169.313C1698.75,-160.33 1686.52,-149.193 1675.74,-139.386"/>
<polygon fill="black" stroke="black" points="1677.96,-136.672 1668.21,-132.529 1673.25,-141.849 1677.96,-136.672"/>
</g>
<!-- Node_function_4060d6 -->
<g id="node11" class="node"><title>Node_function_4060d6</title>
<polygon fill="none" stroke="black" points="1814,-169.5 1814,-205.5 1951,-205.5 1951,-169.5 1814,-169.5"/>
<text text-anchor="middle" x="1882.5" y="-183.8" font-family="Times,serif" font-size="14.00">function_4060d6</text>
</g>
<!-- Node_unknown_407227 -->
<g id="node34" class="node"><title>Node_unknown_407227</title>
<polygon fill="none" stroke="#7f7f7f" points="1811,-96.5 1811,-132.5 1954,-132.5 1954,-96.5 1811,-96.5"/>
<text text-anchor="middle" x="1882.5" y="-110.8" font-family="Times,serif" font-size="14.00" fill="#7f7f7f">unknown_407227</text>
</g>
<!-- Node_function_4060d6&#45;&gt;Node_unknown_407227 -->
<g id="edge11" class="edge"><title>Node_function_4060d6&#45;&gt;Node_unknown_407227</title>
<path fill="none" stroke="black" d="M1882.5,-169.313C1882.5,-161.289 1882.5,-151.547 1882.5,-142.569"/>
<polygon fill="black" stroke="black" points="1886,-142.529 1882.5,-132.529 1879,-142.529 1886,-142.529"/>
</g>
<!-- Node_function_4060df -->
<g id="node12" class="node"><title>Node_function_4060df</title>
<polygon fill="none" stroke="black" points="1969.5,-169.5 1969.5,-205.5 2103.5,-205.5 2103.5,-169.5 1969.5,-169.5"/>
<text text-anchor="middle" x="2036.5" y="-183.8" font-family="Times,serif" font-size="14.00">function_4060df</text>
</g>
<!-- Node__unlock -->
<g id="node33" class="node"><title>Node__unlock</title>
<polygon fill="none" stroke="#7f7f7f" points="2000.5,-96.5 2000.5,-132.5 2072.5,-132.5 2072.5,-96.5 2000.5,-96.5"/>
<text text-anchor="middle" x="2036.5" y="-110.8" font-family="Times,serif" font-size="14.00" fill="#7f7f7f">_unlock</text>
</g>
<!-- Node_function_4060df&#45;&gt;Node__unlock -->
<g id="edge12" class="edge"><title>Node_function_4060df&#45;&gt;Node__unlock</title>
<path fill="none" stroke="black" d="M2036.5,-169.313C2036.5,-161.289 2036.5,-151.547 2036.5,-142.569"/>
<polygon fill="black" stroke="black" points="2040,-142.529 2036.5,-132.529 2033,-142.529 2040,-142.529"/>
</g>
<!-- Node_function_407e9d -->
<g id="node13" class="node"><title>Node_function_407e9d</title>
<polygon fill="none" stroke="black" points="2122,-169.5 2122,-205.5 2259,-205.5 2259,-169.5 2122,-169.5"/>
<text text-anchor="middle" x="2190.5" y="-183.8" font-family="Times,serif" font-size="14.00">function_407e9d</text>
</g>
<!-- Node__qm__qm__qm_ -->
<g id="node22" class="node"><title>Node__qm__qm__qm_</title>
<polygon fill="none" stroke="#7f7f7f" points="2126,-96.5 2126,-132.5 2255,-132.5 2255,-96.5 2126,-96.5"/>
<text text-anchor="middle" x="2190.5" y="-110.8" font-family="Times,serif" font-size="14.00" fill="#7f7f7f">_qm__qm__qm_</text>
</g>
<!-- Node_function_407e9d&#45;&gt;Node__qm__qm__qm_ -->
<g id="edge13" class="edge"><title>Node_function_407e9d&#45;&gt;Node__qm__qm__qm_</title>
<path fill="none" stroke="black" d="M2190.5,-169.313C2190.5,-161.289 2190.5,-151.547 2190.5,-142.569"/>
<polygon fill="black" stroke="black" points="2194,-142.529 2190.5,-132.529 2187,-142.529 2194,-142.529"/>
</g>
<!-- Node_function_408797 -->
<g id="node14" class="node"><title>Node_function_408797</title>
<polygon fill="none" stroke="red" points="2334,-169.5 2334,-205.5 2471,-205.5 2471,-169.5 2334,-169.5"/>
<text text-anchor="middle" x="2402.5" y="-183.8" font-family="Times,serif" font-size="14.00" fill="red">function_408797</text>
</g>
<!-- Node__getptd -->
<g id="node27" class="node"><title>Node__getptd</title>
<polygon fill="none" stroke="#7f7f7f" points="2276,-96.5 2276,-132.5 2347,-132.5 2347,-96.5 2276,-96.5"/>
<text text-anchor="middle" x="2311.5" y="-110.8" font-family="Times,serif" font-size="14.00" fill="#7f7f7f">_getptd</text>
</g>
<!-- Node_function_408797&#45;&gt;Node__getptd -->
<g id="edge14" class="edge"><title>Node_function_408797&#45;&gt;Node__getptd</title>
<path fill="none" stroke="black" d="M2380.47,-169.313C2368.73,-160.156 2354.13,-148.76 2341.38,-138.816"/>
<polygon fill="black" stroke="black" points="2343.36,-135.921 2333.33,-132.529 2339.06,-141.44 2343.36,-135.921"/>
</g>
<!-- Node__qm_terminate__YAXXZ -->
<g id="node36" class="node"><title>Node__qm_terminate__YAXXZ</title>
<polygon fill="none" stroke="#7f7f7f" points="2365.5,-96.5 2365.5,-132.5 2555.5,-132.5 2555.5,-96.5 2365.5,-96.5"/>
<text text-anchor="middle" x="2460.5" y="-110.8" font-family="Times,serif" font-size="14.00" fill="#7f7f7f">_qm_terminate__YAXXZ</text>
</g>
<!-- Node_function_408797&#45;&gt;Node__qm_terminate__YAXXZ -->
<g id="edge15" class="edge"><title>Node_function_408797&#45;&gt;Node__qm_terminate__YAXXZ</title>
<path fill="none" stroke="black" d="M2416.54,-169.313C2423.59,-160.679 2432.27,-150.055 2440.05,-140.534"/>
<polygon fill="black" stroke="black" points="2442.97,-142.488 2446.59,-132.529 2437.55,-138.059 2442.97,-142.488"/>
</g>
<!-- Node_function_40a3f2 -->
<g id="node15" class="node"><title>Node_function_40a3f2</title>
<polygon fill="none" stroke="black" points="2489,-169.5 2489,-205.5 2622,-205.5 2622,-169.5 2489,-169.5"/>
<text text-anchor="middle" x="2555.5" y="-183.8" font-family="Times,serif" font-size="14.00">function_40a3f2</text>
</g>
<!-- Node_function_40a3f5 -->
<g id="node16" class="node"><title>Node_function_40a3f5</title>
<polygon fill="none" stroke="black" points="2640,-169.5 2640,-205.5 2773,-205.5 2773,-169.5 2640,-169.5"/>
<text text-anchor="middle" x="2706.5" y="-183.8" font-family="Times,serif" font-size="14.00">function_40a3f5</text>
</g>
<!-- Node_unknown_40b499 -->
<g id="node37" class="node"><title>Node_unknown_40b499</title>
<polygon fill="none" stroke="#7f7f7f" points="2635,-96.5 2635,-132.5 2778,-132.5 2778,-96.5 2635,-96.5"/>
<text text-anchor="middle" x="2706.5" y="-110.8" font-family="Times,serif" font-size="14.00" fill="#7f7f7f">unknown_40b499</text>
</g>
<!-- Node_function_40a3f5&#45;&gt;Node_unknown_40b499 -->
<g id="edge16" class="edge"><title>Node_function_40a3f5&#45;&gt;Node_unknown_40b499</title>
<path fill="none" stroke="black" d="M2706.5,-169.313C2706.5,-161.289 2706.5,-151.547 2706.5,-142.569"/>
<polygon fill="black" stroke="black" points="2710,-142.529 2706.5,-132.529 2703,-142.529 2710,-142.529"/>
</g>
<!-- Node_function_40a5b5 -->
<g id="node17" class="node"><title>Node_function_40a5b5</title>
<polygon fill="none" stroke="black" points="2791,-169.5 2791,-205.5 2928,-205.5 2928,-169.5 2791,-169.5"/>
<text text-anchor="middle" x="2859.5" y="-183.8" font-family="Times,serif" font-size="14.00">function_40a5b5</text>
</g>
<!-- Node__amsg_exit -->
<g id="node30" class="node"><title>Node__amsg_exit</title>
<polygon fill="none" stroke="#7f7f7f" points="2811,-96.5 2811,-132.5 2908,-132.5 2908,-96.5 2811,-96.5"/>
<text text-anchor="middle" x="2859.5" y="-110.8" font-family="Times,serif" font-size="14.00" fill="#7f7f7f">_amsg_exit</text>
</g>
<!-- Node_function_40a5b5&#45;&gt;Node__amsg_exit -->
<g id="edge17" class="edge"><title>Node_function_40a5b5&#45;&gt;Node__amsg_exit</title>
<path fill="none" stroke="black" d="M2859.5,-169.313C2859.5,-161.289 2859.5,-151.547 2859.5,-142.569"/>
<polygon fill="black" stroke="black" points="2863,-142.529 2859.5,-132.529 2856,-142.529 2863,-142.529"/>
</g>
<!-- Node_function_40b6c5 -->
<g id="node18" class="node"><title>Node_function_40b6c5</title>
<polygon fill="none" stroke="black" points="196,-96.5 196,-132.5 333,-132.5 333,-96.5 196,-96.5"/>
<text text-anchor="middle" x="264.5" y="-110.8" font-family="Times,serif" font-size="14.00">function_40b6c5</text>
</g>
<!-- Node___InternalCxxFrameHandler -->
<g id="node38" class="node"><title>Node___InternalCxxFrameHandler</title>
<polygon fill="none" stroke="#7f7f7f" points="165.5,-23.5 165.5,-59.5 387.5,-59.5 387.5,-23.5 165.5,-23.5"/>
<text text-anchor="middle" x="276.5" y="-37.8" font-family="Times,serif" font-size="14.00" fill="#7f7f7f">__InternalCxxFrameHandler</text>
</g>
<!-- Node_function_40b6c5&#45;&gt;Node___InternalCxxFrameHandler -->
<g id="edge18" class="edge"><title>Node_function_40b6c5&#45;&gt;Node___InternalCxxFrameHandler</title>
<path fill="none" stroke="black" d="M267.405,-96.3129C268.761,-88.2895 270.407,-78.5475 271.925,-69.5691"/>
<polygon fill="black" stroke="black" points="275.406,-69.9723 273.622,-59.5288 268.504,-68.8057 275.406,-69.9723"/>
</g>
<!-- Node_function_40cb01 -->
<g id="node19" class="node"><title>Node_function_40cb01</title>
<polygon fill="none" stroke="black" points="2946,-169.5 2946,-205.5 3083,-205.5 3083,-169.5 2946,-169.5"/>
<text text-anchor="middle" x="3014.5" y="-183.8" font-family="Times,serif" font-size="14.00">function_40cb01</text>
</g>
<!-- Node_free -->
<g id="node23" class="node"><title>Node_free</title>
<polygon fill="none" stroke="#7f7f7f" points="2987.5,-96.5 2987.5,-132.5 3041.5,-132.5 3041.5,-96.5 2987.5,-96.5"/>
<text text-anchor="middle" x="3014.5" y="-110.8" font-family="Times,serif" font-size="14.00" fill="#7f7f7f">free</text>
</g>
<!-- Node_function_40cb01&#45;&gt;Node_free -->
<g id="edge19" class="edge"><title>Node_function_40cb01&#45;&gt;Node_free</title>
<path fill="none" stroke="black" d="M3014.5,-169.313C3014.5,-161.289 3014.5,-151.547 3014.5,-142.569"/>
<polygon fill="black" stroke="black" points="3018,-142.529 3014.5,-132.529 3011,-142.529 3018,-142.529"/>
</g>
<!-- Node_function_40cb1b -->
<g id="node20" class="node"><title>Node_function_40cb1b</title>
<polygon fill="none" stroke="black" points="119,-169.5 119,-205.5 256,-205.5 256,-169.5 119,-169.5"/>
<text text-anchor="middle" x="187.5" y="-183.8" font-family="Times,serif" font-size="14.00">function_40cb1b</text>
</g>
<!-- Node_function_40cb1b&#45;&gt;Node_function_403ecb -->
<g id="edge20" class="edge"><title>Node_function_40cb1b&#45;&gt;Node_function_403ecb</title>
<path fill="none" stroke="black" d="M163.068,-169.494C149.668,-160.166 132.871,-148.474 118.338,-138.358"/>
<polygon fill="black" stroke="black" points="120.293,-135.454 110.086,-132.614 116.294,-141.199 120.293,-135.454"/>
</g>
<!-- Node_function_40cb1b&#45;&gt;Node_function_40b6c5 -->
<g id="edge21" class="edge"><title>Node_function_40cb1b&#45;&gt;Node_function_40b6c5</title>
<path fill="none" stroke="black" d="M206.14,-169.313C215.881,-160.33 227.959,-149.193 238.596,-139.386"/>
<polygon fill="black" stroke="black" points="241.053,-141.881 246.032,-132.529 236.308,-136.735 241.053,-141.881"/>
</g>
<!-- Node_function_40cb5b -->
<g id="node21" class="node"><title>Node_function_40cb5b</title>
<polygon fill="none" stroke="black" points="1039,-169.5 1039,-205.5 1176,-205.5 1176,-169.5 1039,-169.5"/>
<text text-anchor="middle" x="1107.5" y="-183.8" font-family="Times,serif" font-size="14.00">function_40cb5b</text>
</g>
<!-- Node_function_40cb5b&#45;&gt;Node_function_404519 -->
<g id="edge22" class="edge"><title>Node_function_40cb5b&#45;&gt;Node_function_404519</title>
<path fill="none" stroke="black" d="M1107.5,-169.313C1107.5,-161.289 1107.5,-151.547 1107.5,-142.569"/>
<polygon fill="black" stroke="black" points="1111,-142.529 1107.5,-132.529 1104,-142.529 1111,-142.529"/>
</g>
<!-- Node_unknown_407576 -->
<g id="node35" class="node"><title>Node_unknown_407576</title>
<polygon fill="none" stroke="#7f7f7f" points="3098,-96.5 3098,-132.5 3241,-132.5 3241,-96.5 3098,-96.5"/>
<text text-anchor="middle" x="3169.5" y="-110.8" font-family="Times,serif" font-size="14.00" fill="#7f7f7f">unknown_407576</text>
</g>
<!-- Node_abort -->
<g id="node40" class="node"><title>Node_abort</title>
<polygon fill="none" stroke="#7f7f7f" points="3259,-96.5 3259,-132.5 3314,-132.5 3314,-96.5 3259,-96.5"/>
<text text-anchor="middle" x="3286.5" y="-110.8" font-family="Times,serif" font-size="14.00" fill="#7f7f7f">abort</text>
</g>
<!-- Node_function_403ee5 -->
<g id="node41" class="node"><title>Node_function_403ee5</title>
<polygon fill="none" stroke="#7f7f7f" points="3331.5,-169.5 3331.5,-205.5 3467.5,-205.5 3467.5,-169.5 3331.5,-169.5"/>
<text text-anchor="middle" x="3399.5" y="-183.8" font-family="Times,serif" font-size="14.00" fill="#7f7f7f">function_403ee5</text>
</g>
<!-- Node_function_40415a -->
<g id="node42" class="node"><title>Node_function_40415a</title>
<polygon fill="none" stroke="#7f7f7f" points="3486,-169.5 3486,-205.5 3623,-205.5 3623,-169.5 3486,-169.5"/>
<text text-anchor="middle" x="3554.5" y="-183.8" font-family="Times,serif" font-size="14.00" fill="#7f7f7f">function_40415a</text>
</g>
<!-- Node_function_404524 -->
<g id="node43" class="node"><title>Node_function_404524</title>
<polygon fill="none" stroke="#7f7f7f" points="3641,-169.5 3641,-205.5 3778,-205.5 3778,-169.5 3641,-169.5"/>
<text text-anchor="middle" x="3709.5" y="-183.8" font-family="Times,serif" font-size="14.00" fill="#7f7f7f">function_404524</text>
</g>
<!-- Node_function_401010 -->
<g id="node44" class="node"><title>Node_function_401010</title>
<polygon fill="none" stroke="#7f7f7f" points="3796,-169.5 3796,-205.5 3933,-205.5 3933,-169.5 3796,-169.5"/>
<text text-anchor="middle" x="3864.5" y="-183.8" font-family="Times,serif" font-size="14.00" fill="#7f7f7f">function_401010</text>
</g>
<!-- Node_function_403a80 -->
<g id="node45" class="node"><title>Node_function_403a80</title>
<polygon fill="none" stroke="#7f7f7f" points="3951,-169.5 3951,-205.5 4088,-205.5 4088,-169.5 3951,-169.5"/>
<text text-anchor="middle" x="4019.5" y="-183.8" font-family="Times,serif" font-size="14.00" fill="#7f7f7f">function_403a80</text>
</g>
<!-- Node_function_40bc1d -->
<g id="node46" class="node"><title>Node_function_40bc1d</title>
<polygon fill="none" stroke="#7f7f7f" points="4106,-169.5 4106,-205.5 4243,-205.5 4243,-169.5 4106,-169.5"/>
<text text-anchor="middle" x="4174.5" y="-183.8" font-family="Times,serif" font-size="14.00" fill="#7f7f7f">function_40bc1d</text>
</g>
<!-- Node_function_401000 -->
<g id="node47" class="node"><title>Node_function_401000</title>
<polygon fill="none" stroke="black" points="4261,-169.5 4261,-205.5 4398,-205.5 4398,-169.5 4261,-169.5"/>
<text text-anchor="middle" x="4329.5" y="-183.8" font-family="Times,serif" font-size="14.00">function_401000</text>
</g>
<!-- Node_function_401020 -->
<g id="node48" class="node"><title>Node_function_401020</title>
<polygon fill="none" stroke="black" points="4416,-169.5 4416,-205.5 4553,-205.5 4553,-169.5 4416,-169.5"/>
<text text-anchor="middle" x="4484.5" y="-183.8" font-family="Times,serif" font-size="14.00">function_401020</text>
</g>
<!-- Node_function_401030 -->
<g id="node49" class="node"><title>Node_function_401030</title>
<polygon fill="none" stroke="black" points="4571,-169.5 4571,-205.5 4708,-205.5 4708,-169.5 4571,-169.5"/>
<text text-anchor="middle" x="4639.5" y="-183.8" font-family="Times,serif" font-size="14.00">function_401030</text>
</g>
<!-- Node_function_401040 -->
<g id="node50" class="node"><title>Node_function_401040</title>
<polygon fill="none" stroke="black" points="4726,-169.5 4726,-205.5 4863,-205.5 4863,-169.5 4726,-169.5"/>
<text text-anchor="middle" x="4794.5" y="-183.8" font-family="Times,serif" font-size="14.00">function_401040</text>
</g>
<!-- Node_function_401050 -->
<g id="node51" class="node"><title>Node_function_401050</title>
<polygon fill="none" stroke="black" points="4881,-169.5 4881,-205.5 5018,-205.5 5018,-169.5 4881,-169.5"/>
<text text-anchor="middle" x="4949.5" y="-183.8" font-family="Times,serif" font-size="14.00">function_401050</text>
</g>
<!-- Node_function_401060 -->
<g id="node52" class="node"><title>Node_function_401060</title>
<polygon fill="none" stroke="black" points="5036,-169.5 5036,-205.5 5173,-205.5 5173,-169.5 5036,-169.5"/>
<text text-anchor="middle" x="5104.5" y="-183.8" font-family="Times,serif" font-size="14.00">function_401060</text>
</g>
<!-- Node_function_401070 -->
<g id="node53" class="node"><title>Node_function_401070</title>
<polygon fill="none" stroke="black" points="5191,-169.5 5191,-205.5 5328,-205.5 5328,-169.5 5191,-169.5"/>
<text text-anchor="middle" x="5259.5" y="-183.8" font-family="Times,serif" font-size="14.00">function_401070</text>
</g>
<!-- Node_function_401080 -->
<g id="node54" class="node"><title>Node_function_401080</title>
<polygon fill="none" stroke="black" points="5346,-169.5 5346,-205.5 5483,-205.5 5483,-169.5 5346,-169.5"/>
<text text-anchor="middle" x="5414.5" y="-183.8" font-family="Times,serif" font-size="14.00">function_401080</text>
</g>
<!-- Node_function_401090 -->
<g id="node55" class="node"><title>Node_function_401090</title>
<polygon fill="none" stroke="black" points="5501,-169.5 5501,-205.5 5638,-205.5 5638,-169.5 5501,-169.5"/>
<text text-anchor="middle" x="5569.5" y="-183.8" font-family="Times,serif" font-size="14.00">function_401090</text>
</g>
<!-- Node_function_4010a0 -->
<g id="node56" class="node"><title>Node_function_4010a0</title>
<polygon fill="none" stroke="black" points="5656,-169.5 5656,-205.5 5793,-205.5 5793,-169.5 5656,-169.5"/>
<text text-anchor="middle" x="5724.5" y="-183.8" font-family="Times,serif" font-size="14.00">function_4010a0</text>
</g>
<!-- Node_function_4010b0 -->
<g id="node57" class="node"><title>Node_function_4010b0</title>
<polygon fill="none" stroke="black" points="5811,-169.5 5811,-205.5 5948,-205.5 5948,-169.5 5811,-169.5"/>
<text text-anchor="middle" x="5879.5" y="-183.8" font-family="Times,serif" font-size="14.00">function_4010b0</text>
</g>
<!-- Node_function_4010c0 -->
<g id="node58" class="node"><title>Node_function_4010c0</title>
<polygon fill="none" stroke="black" points="5966,-169.5 5966,-205.5 6103,-205.5 6103,-169.5 5966,-169.5"/>
<text text-anchor="middle" x="6034.5" y="-183.8" font-family="Times,serif" font-size="14.00">function_4010c0</text>
</g>
<!-- Node_function_4010d0 -->
<g id="node59" class="node"><title>Node_function_4010d0</title>
<polygon fill="none" stroke="black" points="6121,-169.5 6121,-205.5 6258,-205.5 6258,-169.5 6121,-169.5"/>
<text text-anchor="middle" x="6189.5" y="-183.8" font-family="Times,serif" font-size="14.00">function_4010d0</text>
</g>
<!-- Node_function_4010e0 -->
<g id="node60" class="node"><title>Node_function_4010e0</title>
<polygon fill="none" stroke="black" points="6276,-169.5 6276,-205.5 6413,-205.5 6413,-169.5 6276,-169.5"/>
<text text-anchor="middle" x="6344.5" y="-183.8" font-family="Times,serif" font-size="14.00">function_4010e0</text>
</g>
<!-- Node_function_4010f0 -->
<g id="node61" class="node"><title>Node_function_4010f0</title>
<polygon fill="none" stroke="black" points="6431.5,-169.5 6431.5,-205.5 6565.5,-205.5 6565.5,-169.5 6431.5,-169.5"/>
<text text-anchor="middle" x="6498.5" y="-183.8" font-family="Times,serif" font-size="14.00">function_4010f0</text>
</g>
<!-- Node_function_401100 -->
<g id="node62" class="node"><title>Node_function_401100</title>
<polygon fill="none" stroke="black" points="6584,-169.5 6584,-205.5 6721,-205.5 6721,-169.5 6584,-169.5"/>
<text text-anchor="middle" x="6652.5" y="-183.8" font-family="Times,serif" font-size="14.00">function_401100</text>
</g>
<!-- Node_function_401110 -->
<g id="node63" class="node"><title>Node_function_401110</title>
<polygon fill="none" stroke="black" points="6739,-169.5 6739,-205.5 6876,-205.5 6876,-169.5 6739,-169.5"/>
<text text-anchor="middle" x="6807.5" y="-183.8" font-family="Times,serif" font-size="14.00">function_401110</text>
</g>
<!-- Node_function_407590 -->
<g id="node64" class="node"><title>Node_function_407590</title>
<polygon fill="none" stroke="black" points="3101,-169.5 3101,-205.5 3238,-205.5 3238,-169.5 3101,-169.5"/>
<text text-anchor="middle" x="3169.5" y="-183.8" font-family="Times,serif" font-size="14.00">function_407590</text>
</g>
<!-- Node_function_407590&#45;&gt;Node_unknown_407576 -->
<g id="edge23" class="edge"><title>Node_function_407590&#45;&gt;Node_unknown_407576</title>
<path fill="none" stroke="black" d="M3169.5,-169.313C3169.5,-161.289 3169.5,-151.547 3169.5,-142.569"/>
<polygon fill="black" stroke="black" points="3173,-142.529 3169.5,-132.529 3166,-142.529 3173,-142.529"/>
</g>
<!-- Node_function_401120 -->
<g id="node65" class="node"><title>Node_function_401120</title>
<polygon fill="none" stroke="black" points="6894,-169.5 6894,-205.5 7031,-205.5 7031,-169.5 6894,-169.5"/>
<text text-anchor="middle" x="6962.5" y="-183.8" font-family="Times,serif" font-size="14.00">function_401120</text>
</g>
<!-- Node_function_401130 -->
<g id="node66" class="node"><title>Node_function_401130</title>
<polygon fill="none" stroke="black" points="7049,-169.5 7049,-205.5 7186,-205.5 7186,-169.5 7049,-169.5"/>
<text text-anchor="middle" x="7117.5" y="-183.8" font-family="Times,serif" font-size="14.00">function_401130</text>
</g>
<!-- Node_function_401140 -->
<g id="node67" class="node"><title>Node_function_401140</title>
<polygon fill="none" stroke="red" points="7204,-169.5 7204,-205.5 7341,-205.5 7341,-169.5 7204,-169.5"/>
<text text-anchor="middle" x="7272.5" y="-183.8" font-family="Times,serif" font-size="14.00" fill="red">function_401140</text>
</g>
<!-- Node_main -->
<g id="node68" class="node"><title>Node_main</title>
<polygon fill="none" stroke="black" points="3259.5,-169.5 3259.5,-205.5 3313.5,-205.5 3313.5,-169.5 3259.5,-169.5"/>
<text text-anchor="middle" x="3286.5" y="-183.8" font-family="Times,serif" font-size="14.00">main</text>
</g>
<!-- Node_main&#45;&gt;Node_abort -->
<g id="edge24" class="edge"><title>Node_main&#45;&gt;Node_abort</title>
<path fill="none" stroke="black" d="M3286.5,-169.313C3286.5,-161.289 3286.5,-151.547 3286.5,-142.569"/>
<polygon fill="black" stroke="black" points="3290,-142.529 3286.5,-132.529 3283,-142.529 3290,-142.529"/>
</g>
</g>
</svg>
